<svg xmlns="http://www.w3.org/2000/svg" width="28" height="28" viewBox="0 0 28 28">
    <path id="Calendar" d="M31.25,943.5a1.751,1.751,0,0,1-1.75-1.75v-24.5a1.752,1.752,0,0,1,1.75-1.75H33v5.251h7V915.5h7v5.25h7V915.5h1.75a1.753,1.753,0,0,1,1.751,1.75v24.5a1.752,1.752,0,0,1-1.751,1.75ZM33,940H54V924.25H33Zm14-3.5V933h3.5v3.5Zm-5.25,0V933h3.5v3.5Zm-5.25,0V933H40v3.5ZM47,931.25v-3.5h3.5v3.5Zm-5.25,0v-3.5h3.5v3.5Zm-5.25,0v-3.5H40v3.5ZM52.25,919h-3.5v-3.5h3.5V919h0Zm-14,0h-3.5v-3.5h3.5V919h0Z" transform="translate(-29.5 -915.5)" fill="currentColor"/>
</svg>
